<?xml version="1.0" encoding="utf-8"?>
<!-- Generator: Adobe Illustrator 26.5.0, SVG Export Plug-In . SVG Version: 6.00 Build 0)  -->
<svg version="1.1" id="Ebene_1" xmlns="http://www.w3.org/2000/svg" xmlns:xlink="http://www.w3.org/1999/xlink" x="0px" y="0px"
	 viewBox="0 0 48 48" style="enable-background:new 0 0 48 48;" xml:space="preserve">
<style type="text/css">
	.st0{fill:#171717;}
</style>
<g id="grid_system">
</g>
<g id="_icons">
	<path class="st0" d="M39.7,37.1l-1.8-1.8c-0.7-0.7-1.8-0.7-2.5,0c-0.7,0.7-0.7,1.8,0,2.5l1.8,1.8c0.4,0.4,0.9,0.5,1.3,0.5
		c0.4,0,0.9-0.2,1.3-0.5C40.4,38.9,40.4,37.9,39.7,37.1z"/>
	<path class="st0" d="M27.6,42c0,1.1,0.7,1.8,1.8,1.8c1.1,0,1.8-0.7,1.8-1.8v-3.6c0-1.1-0.7-1.8-1.8-1.8c-1.1,0-1.8,0.7-1.8,1.8V42z
		"/>
	<path class="st0" d="M42,27.6h-3.6c-1.1,0-1.8,0.7-1.8,1.8c0,1.1,0.7,1.8,1.8,1.8H42c1.1,0,1.8-0.7,1.8-1.8
		C43.8,28.3,43.1,27.6,42,27.6z"/>
	<path class="st0" d="M39.7,17.5c0-2.5-0.9-4.7-2.7-6.5c-1.8-1.8-4-2.7-6.5-2.7S25.8,9.2,24,11l-4,4c-0.7,0.7-0.7,1.8,0,2.5
		s1.8,0.7,2.5,0l4-4c2.2-2.2,5.8-2.2,7.9,0c1.1,1.1,1.6,2.5,1.6,4s-0.5,2.9-1.6,4l-4,4c-0.7,0.7-0.7,1.8,0,2.5
		c0.4,0.4,0.9,0.5,1.3,0.5s0.9-0.2,1.3-0.5l4-4C38.8,22.2,39.7,20,39.7,17.5z"/>
	<path class="st0" d="M8.3,30.5c0,2.5,0.9,4.7,2.7,6.5c1.8,1.8,4,2.7,6.5,2.7s4.7-0.9,6.5-2.7l4-4c0.7-0.7,0.7-1.8,0-2.5
		s-1.8-0.7-2.5,0l-4,4c-2.2,2.2-5.8,2.2-7.9,0c-1.1-1.1-1.6-2.5-1.6-4c0-1.4,0.5-2.9,1.6-4l4-4c0.7-0.7,0.7-1.8,0-2.5
		s-1.8-0.7-2.5,0l-4,4C9.2,25.8,8.3,28,8.3,30.5z"/>
	<path class="st0" d="M12.7,10.1l-1.8-1.8c-0.7-0.7-1.8-0.7-2.5,0s-0.7,1.8,0,2.5l1.8,1.8c0.4,0.4,0.7,0.5,1.3,0.5
		c0.5,0,0.9-0.2,1.3-0.5C13.4,11.9,13.4,10.9,12.7,10.1z"/>
	<path class="st0" d="M20.4,9.6V6c0-1.1-0.7-1.8-1.8-1.8c-1.1,0-1.8,0.7-1.8,1.8v3.6c0,1.1,0.7,1.8,1.8,1.8
		C19.7,11.4,20.4,10.7,20.4,9.6z"/>
	<path class="st0" d="M9.6,20.4c1.1,0,1.8-0.7,1.8-1.8c0-1.1-0.7-1.8-1.8-1.8H6c-1.1,0-1.8,0.7-1.8,1.8c0,1.1,0.7,1.8,1.8,1.8H9.6z"
		/>
</g>
</svg>
