<?xml version="1.0" encoding="utf-8"?>
<!-- Generator: Adobe Illustrator 26.5.0, SVG Export Plug-In . SVG Version: 6.00 Build 0)  -->
<svg version="1.1" id="Ebene_1" xmlns="http://www.w3.org/2000/svg" xmlns:xlink="http://www.w3.org/1999/xlink" x="0px" y="0px"
	 viewBox="0 0 48 48" style="enable-background:new 0 0 48 48;" xml:space="preserve">
<style type="text/css">
	.st0{display:none;}
	.st1{display:inline;fill:#CC2121;}
	.st2{fill:#FFFFFF;}
</style>
<g id="Ebene_2_00000006709767809314110020000003299338189781902726_" class="st0">
	<rect y="0" class="st1" width="48" height="48"/>
</g>
<g>
	<path class="st2" d="M21.5,40.8c-0.9,0-1.4,0.7-1.4,1.4c0,0.9,0.7,1.4,1.4,1.4h5.2c0.9,0,1.4-0.7,1.4-1.4c0-0.9-0.7-1.4-1.4-1.4
		h-0.9h-0.3v-0.3v-3.6v-0.3l0.3,0C31.6,35.7,36,30.7,36,24.9c0-0.9-0.7-1.4-1.4-1.4c-0.9,0-1.4,0.7-1.4,1.4c0,5-4,9-9,9s-9-4-9-9
		c0-0.9-0.7-1.4-1.4-1.4c-0.7,0-1.5,0.6-1.5,1.4c0,5.9,4.3,10.8,10.1,11.7l0.3,0v0.3v3.6v0.3h-0.3H21.5z"/>
</g>
<path class="st2" d="M24.1,31.5c-3.6,0-6.6-3-6.6-6.6V11c0-3.6,3-6.6,6.6-6.6s6.6,3,6.6,6.6v13.9C30.7,28.5,27.7,31.5,24.1,31.5z
	 M24.2,7.2c-2.1,0-3.8,1.7-3.8,3.8v13.9c0,2.1,1.7,3.8,3.8,3.8S28,27,28,24.9V11C28,8.9,26.3,7.2,24.2,7.2z"/>
</svg>
