<?xml version="1.0" encoding="utf-8"?>
<!-- Generator: Adobe Illustrator 26.5.0, SVG Export Plug-In . SVG Version: 6.00 Build 0)  -->
<svg version="1.1" id="Ebene_1" xmlns="http://www.w3.org/2000/svg" xmlns:xlink="http://www.w3.org/1999/xlink" x="0px" y="0px"
	 viewBox="0 0 48 48" style="enable-background:new 0 0 48 48;" xml:space="preserve">
<style type="text/css">
	.st0{display:none;}
	.st1{display:inline;fill:#CC2121;}
	.st2{fill:#FFFFFF;}
	.st3{fill:#FFFFFF;stroke:#FFFFFF;stroke-width:0.1;stroke-miterlimit:10;}
</style>
<g id="Ebene_2_00000006709767809314110020000003299338189781902726_" class="st0">
	<rect y="0" class="st1" width="48" height="48"/>
</g>
<g>
	<path class="st2" d="M38.8,6.5h-2V5.7c0-1.1-0.4-2.2-1.2-2.9c-0.8-0.8-1.8-1.2-2.9-1.2c-2.3,0-4.2,1.9-4.2,4.2v0.8h-9V5.7
		c0-1.1-0.4-2.2-1.2-2.9c-0.8-0.8-1.8-1.2-2.9-1.2c-2.3,0-4.2,1.9-4.2,4.2v0.8h-2C6.3,6.5,4,8.8,4,11.6V17v24.3
		c0,2.8,2.3,5.2,5.2,5.2h29.7c2.8,0,5.2-2.3,5.2-5.2V17v-5.3C44,8.8,41.7,6.5,38.8,6.5z M31.2,5.7c0-0.8,0.6-1.4,1.4-1.4
		c0.4,0,0.7,0.1,1,0.4s0.4,0.6,0.4,1v2.1v2.1c0,0.8-0.6,1.4-1.4,1.4c-0.8,0-1.4-0.6-1.4-1.4V7.8C31.2,7.8,31.2,5.7,31.2,5.7z
		 M13.9,5.7c0-0.8,0.6-1.4,1.4-1.4c0.4,0,0.7,0.1,1,0.4c0.3,0.3,0.4,0.6,0.4,1v2.1v2.1c0,0.8-0.6,1.4-1.4,1.4
		c-0.8,0-1.4-0.6-1.4-1.4V7.8V5.7z M6.7,11.6c0-1.3,1.1-2.4,2.4-2.4h2V10c0,2.3,1.9,4.2,4.2,4.2s4.2-1.9,4.2-4.2V9.2h9V10
		c0,2.3,1.9,4.2,4.2,4.2s4.2-1.9,4.2-4.2V9.2h2c1.3,0,2.4,1.1,2.4,2.4v4H6.7V11.6z M41.3,41.3c0,1.3-1.1,2.4-2.4,2.4H9.2
		c-1.3,0-2.4-1.1-2.4-2.4v-23h34.5V41.3z"/>
	<g>
		<path class="st3" d="M33.2,30.1L33.2,30.1c0-0.6-0.5-1-1.1-1c-0.6,0-1.1,0.5-1.1,1.1v0.2l0,0c0,0.1,0,0.3,0,0.4c0,3.9-3.1,7-7,7
			s-7-3.1-7-7s3.1-7,7-7c1.2,0,2.4,0.3,3.5,0.9c0.5,0.3,1.2,0.1,1.5-0.4s0.1-1.2-0.4-1.5c-1.4-0.8-3-1.2-4.6-1.2
			c-5.1,0-9.2,4.1-9.2,9.2S18.9,40,24,40s9.2-4.1,9.2-9.2C33.2,30.5,33.2,30.3,33.2,30.1z"/>
		<g>
			<path class="st3" d="M23.9,34.5c-0.3,0-0.6-0.1-0.8-0.4l-3.3-3.3c-0.5-0.5-0.5-1.2,0-1.7s1.2-0.5,1.7,0l2.5,2.5l7.3-7.3
				c0.5-0.5,1.2-0.5,1.7,0s0.5,1.2,0,1.7l-8.2,8.2C24.5,34.4,24.2,34.5,23.9,34.5z"/>
		</g>
	</g>
</g>
</svg>
