<?xml version="1.0" encoding="utf-8"?>
<!-- Generator: Adobe Illustrator 26.5.0, SVG Export Plug-In . SVG Version: 6.00 Build 0)  -->
<svg version="1.1" id="Ebene_1" xmlns="http://www.w3.org/2000/svg" xmlns:xlink="http://www.w3.org/1999/xlink" x="0px" y="0px"
	 viewBox="0 0 48 48" style="enable-background:new 0 0 48 48;" xml:space="preserve">
<style type="text/css">
	.st0{display:none;}
	.st1{display:inline;fill:#CC2121;}
	.st2{fill:#FFFFFF;}
</style>
<g id="Ebene_2_00000111901092025678784640000017480740548192803208_" class="st0">
	<rect y="0" class="st1" width="48" height="48"/>
</g>
<g id="Layer_1">
	<g id="about">
		<path class="st2" d="M24.7,23.9c5.6,0,10.1-4.4,10.1-10.1S30.3,3.7,24.7,3.7S14.6,8.2,14.6,13.8S19.1,23.9,24.7,23.9z M24.7,6.5
			c4,0,7.2,3.1,7.2,7.2S28.8,21,24.7,21s-7.2-3.1-7.2-7.2S20.7,6.5,24.7,6.5z"/>
		<path class="st2" d="M26.2,26.8h-2.9c-8.8,0-15.9,7.1-15.9,15.8C7.4,43.4,8,44,8.9,44h31.7c0.9,0,1.5-0.6,1.5-1.5
			C42,33.8,34.9,26.8,26.2,26.8z M10.5,41.2c0.7-6.6,6.4-11.5,12.8-11.5h2.9c6.6,0,12.1,4.9,12.8,11.5H10.5z"/>
	</g>
</g>
</svg>
