<?xml version="1.0" encoding="utf-8"?>
<!-- Generator: Adobe Illustrator 26.5.0, SVG Export Plug-In . SVG Version: 6.00 Build 0)  -->
<svg version="1.1" id="Ebene_1" xmlns="http://www.w3.org/2000/svg" xmlns:xlink="http://www.w3.org/1999/xlink" x="0px" y="0px"
	 viewBox="0 0 48 48" style="enable-background:new 0 0 48 48;" xml:space="preserve">
<style type="text/css">
	.st0{display:none;}
	.st1{display:inline;fill:#CC2121;}
	.st2{fill:none;stroke:#FFFFFF;stroke-width:2.5;}
	.st3{fill:#FFFFFF;}
</style>
<g id="Ebene_2_00000006709767809314110020000003299338189781902726_" class="st0">
	<rect y="0" class="st1" width="48" height="48"/>
</g>
<g>
	<g>
		<circle class="st2" cx="24" cy="24" r="19.2"/>
	</g>
</g>
<g id="Layer_1">
	<g id="about">
		<path class="st3" d="M24.2,28.4c4.7,0,8.6-3.8,8.6-8.6s-3.9-8.6-8.6-8.6s-8.6,3.9-8.6,8.6S19.5,28.4,24.2,28.4z M24.2,13.6
			c3.4,0,6.2,2.7,6.2,6.2s-2.7,6.2-6.2,6.2S18,23.3,18,19.8S20.8,13.6,24.2,13.6z"/>
		<path class="st3" d="M13.2,39.3c1.9-3.6,5.6-6,9.8-6h2.5c4.2,0,7.9,2.3,9.7,5.8l1.8-1.7c-2.4-3.9-6.6-6.5-11.6-6.5h-2.3
			c-5,0-9.4,2.7-11.6,6.7L13.2,39.3z"/>
	</g>
</g>
</svg>
