<?xml version="1.0" encoding="utf-8"?>
<!-- Generator: Adobe Illustrator 26.5.0, SVG Export Plug-In . SVG Version: 6.00 Build 0)  -->
<svg version="1.1" id="Ebene_1" xmlns="http://www.w3.org/2000/svg" xmlns:xlink="http://www.w3.org/1999/xlink" x="0px" y="0px"
	 viewBox="0 0 48 48" style="enable-background:new 0 0 48 48;" xml:space="preserve">
<style type="text/css">
	.st0{display:none;}
	.st1{display:inline;fill:#CC2121;}
	.st2{fill:#FFFFFF;}
</style>
<g id="Ebene_2_00000006709767809314110020000003299338189781902726_" class="st0">
	<rect y="0" class="st1" width="48" height="48"/>
</g>
<g>
	<path class="st2" d="M30.4,5.7c0.5,0,1.1,0.4,1.1,1.1v12.9h5.4c0.3,0,0.5,0.1,0.7,0.3c0.5,0.4,0.5,1.1,0.1,1.5L24.8,35.8l-0.1,0.1
		c-0.2,0.2-0.4,0.3-0.7,0.3c-0.3,0-0.6-0.1-0.8-0.4L10.4,21.5c-0.2-0.2-0.3-0.5-0.3-0.7c0-0.5,0.4-1.1,1.1-1.1h5.4V6.8
		c0-0.5,0.5-1.1,1.1-1.1H30.4z M24,33.5l10.4-11.6h-4.1c-0.5,0-1.1-0.5-1.1-1.1V8H18.8v12.9c0,0.5-0.4,1.1-1.1,1.1h-4.1L24,33.5z"/>
</g>
<path class="st2" d="M36.4,42.3H11.6c-3.3,0-6-2.7-6-6v-3.5c0-0.7,0.6-1.3,1.3-1.3s1.4,0.6,1.4,1.3v3.5c0,1.8,1.4,3.2,3.2,3.2h24.9
	c1.8,0,3.2-1.4,3.2-3.2v-3.5c0-0.7,0.6-1.3,1.3-1.3c0.7,0,1.3,0.6,1.3,1.3v3.5C42.4,39.7,39.7,42.3,36.4,42.3"/>
</svg>
