<?xml version="1.0" encoding="utf-8"?>
<!-- Generator: Adobe Illustrator 26.5.0, SVG Export Plug-In . SVG Version: 6.00 Build 0)  -->
<svg version="1.1" id="Ebene_1" xmlns="http://www.w3.org/2000/svg" xmlns:xlink="http://www.w3.org/1999/xlink" x="0px" y="0px"
	 viewBox="0 0 48 48" style="enable-background:new 0 0 48 48;" xml:space="preserve">
<style type="text/css">
	.st0{display:none;}
	.st1{display:inline;fill:#CC2121;}
	.st2{fill:#FFFFFF;stroke:#FFFFFF;stroke-width:2.5;stroke-miterlimit:10;}
</style>
<g id="Ebene_2_00000006709767809314110020000003299338189781902726_" class="st0">
	<rect y="0" class="st1" width="48" height="48"/>
</g>
<g>
	<path class="st2" d="M11.4,41.8L13.3,30c0.1-0.4-0.1-0.8-0.4-1l-8.6-8.2c-0.7-0.7-0.3-1.9,0.6-2l11.8-1.8c0.4-0.1,0.7-0.3,0.9-0.7
		l5.2-10.8c0.4-0.9,1.7-0.9,2.1,0l5.4,10.7c0.2,0.3,0.5,0.6,0.9,0.6L43,18.3c1,0.1,1.4,1.3,0.7,2l-8.5,8.4c-0.3,0.3-0.4,0.7-0.3,1.1
		l2.1,11.7c0.2,1-0.8,1.7-1.7,1.3l-10.6-5.4c-0.3-0.2-0.8-0.2-1.1,0l-10.5,5.7C12.3,43.5,11.2,42.8,11.4,41.8z"/>
</g>
</svg>
