<?xml version="1.0" encoding="utf-8"?>
<!-- Generator: Adobe Illustrator 26.5.0, SVG Export Plug-In . SVG Version: 6.00 Build 0)  -->
<svg version="1.1" id="Ebene_1" xmlns="http://www.w3.org/2000/svg" xmlns:xlink="http://www.w3.org/1999/xlink" x="0px" y="0px"
	 viewBox="0 0 48 48" style="enable-background:new 0 0 48 48;" xml:space="preserve">
<style type="text/css">
	.st0{display:none;}
	.st1{display:inline;fill:#CC2121;}
	.st2{fill:none;stroke:#FFFFFF;stroke-width:2.5;}
	.st3{fill:#FFFFFF;}
</style>
<g id="Ebene_2_00000006709767809314110020000003299338189781902726_" class="st0">
	<rect x="0.1" y="0" class="st1" width="48" height="48"/>
</g>
<g>
	<g>
		<circle class="st2" cx="23.9" cy="24" r="19.2"/>
	</g>
</g>
<g id="Layer_1">
	<g>
		<path class="st3" d="M32.6,33.2H15.3c-2.1,0-3.7-1.6-3.7-3.7v-9.8c0-2.1,1.6-3.7,3.7-3.7h2l1.2-1.2c0.7-0.7,2-1.2,2.9-1.2h4.9
			c1,0,2.2,0.5,2.9,1.2l1.2,1.2h2c2.1,0,3.7,1.6,3.7,3.7v9.8C36.3,31.6,34.7,33.2,32.6,33.2z M15.3,18.4c-0.7,0-1.2,0.5-1.2,1.2v9.8
			c0,0.7,0.5,1.2,1.2,1.2h17.2c0.7,0,1.2-0.5,1.2-1.2v-9.8c0-0.7-0.5-1.2-1.2-1.2h-2.4c-0.4,0-0.6-0.1-0.9-0.4l-1.6-1.6
			c-0.3-0.3-0.9-0.5-1.2-0.5h-4.9c-0.4,0-1,0.3-1.2,0.5l-1.6,1.6c-0.3,0.3-0.5,0.4-0.9,0.4H15.3z"/>
	</g>
	<g>
		<path class="st3" d="M24,20.9c1.7,0,3.1,1.3,3.1,3.1c0,1.8-1.3,3.1-3.1,3.1c-1.8,0-3.1-1.3-3.1-3.1C20.9,22.2,22.3,20.9,24,20.9
			 M24,19.7c-2.3,0-4.3,2-4.3,4.3s2,4.3,4.3,4.3s4.3-2,4.3-4.3S26.3,19.7,24,19.7z"/>
	</g>
	<g>
		<path class="st3" d="M31.1,19.7c-0.9,0-1.6,0.7-1.6,1.6c0,0.9,0.7,1.6,1.6,1.6s1.6-0.7,1.6-1.6C32.7,20.5,32,19.7,31.1,19.7z"/>
	</g>
</g>
</svg>
