<?xml version="1.0" encoding="utf-8"?>
<!-- Generator: Adobe Illustrator 26.5.0, SVG Export Plug-In . SVG Version: 6.00 Build 0)  -->
<svg version="1.1" id="Ebene_1" xmlns="http://www.w3.org/2000/svg" xmlns:xlink="http://www.w3.org/1999/xlink" x="0px" y="0px"
	 viewBox="0 0 48 48" style="enable-background:new 0 0 48 48;" xml:space="preserve">
<style type="text/css">
	.st0{display:none;}
	.st1{display:inline;fill:#CC2121;}
	.st2{fill:#FFFFFF;}
</style>
<g id="Ebene_2_00000006709767809314110020000003299338189781902726_" class="st0">
	<rect y="0" class="st1" width="48" height="48"/>
</g>
<g>
	<path class="st2" d="M17.7,36.2c-0.6,0-1.1-0.5-1.1-1.1V22.2h-5.4c-0.6,0-1.1-0.5-1.1-1.1c0-0.3,0.1-0.5,0.3-0.7L23.2,6.1
		c0.2-0.3,0.5-0.4,0.8-0.4c0.3,0,0.5,0.1,0.7,0.3l0.1,0.1l12.9,14.3c0.5,0.5,0.4,1.2-0.1,1.5c-0.2,0.2-0.5,0.3-0.7,0.3h-5.4v12.9
		c0,0.6-0.5,1.1-1.1,1.1H17.7z M13.6,20h4.1c0.6,0,1.1,0.5,1.1,1.1v12.9h10.4V21.1c0-0.6,0.5-1.1,1.1-1.1h4L24,8.4L13.6,20z"/>
</g>
<path class="st2" d="M36.4,42.3H11.6c-3.3,0-6-2.7-6-6v-3.5c0-0.7,0.6-1.3,1.3-1.3s1.4,0.6,1.4,1.3v3.5c0,1.8,1.4,3.2,3.2,3.2h24.9
	c1.8,0,3.2-1.4,3.2-3.2v-3.5c0-0.7,0.6-1.3,1.3-1.3c0.7,0,1.3,0.6,1.3,1.3v3.5C42.4,39.7,39.7,42.3,36.4,42.3"/>
</svg>
