<?xml version="1.0" encoding="utf-8"?>
<!-- Generator: Adobe Illustrator 26.5.0, SVG Export Plug-In . SVG Version: 6.00 Build 0)  -->
<svg version="1.1" xmlns="http://www.w3.org/2000/svg" xmlns:xlink="http://www.w3.org/1999/xlink" x="0px" y="0px"
	 viewBox="0 0 48 48" style="enable-background:new 0 0 48 48;" xml:space="preserve">
<style type="text/css">
	.st0{display:none;}
	.st1{display:inline;fill:#CC2121;}
	.st2{fill:#FFFFFF;}
</style>
<g id="Ebene_2" class="st0">
	<rect class="st1" width="48" height="48"/>
</g>
<g id="Layer_1">
	<g>
		<path class="st2" d="M40.2,42.5H7.8c-3.9,0-6.9-3-6.9-6.9V17.1c0-3.9,3-6.9,6.9-6.9h3.7l2.3-2.3c1.4-1.4,3.7-2.3,5.5-2.3h9.2
			c1.8,0,4.2,0.9,5.5,2.3l2.3,2.3h3.7c3.9,0,6.9,3,6.9,6.9v18.5C47.1,39.5,44.1,42.5,40.2,42.5z M7.8,14.8c-1.4,0-2.3,0.9-2.3,2.3
			v18.5c0,1.4,0.9,2.3,2.3,2.3h32.3c1.4,0,2.3-0.9,2.3-2.3V17.1c0-1.4-0.9-2.3-2.3-2.3h-4.6c-0.7,0-1.2-0.2-1.6-0.7l-3-3
			c-0.5-0.5-1.6-0.9-2.3-0.9h-9.2c-0.7,0-1.8,0.5-2.3,0.9l-3,3c-0.5,0.5-0.9,0.7-1.6,0.7H7.8z"/>
	</g>
	<g>
		<path class="st2" d="M24,19.4c3.2,0,5.8,2.5,5.8,5.8s-2.5,5.8-5.8,5.8s-5.8-2.5-5.8-5.8S20.8,19.4,24,19.4 M24,17.1
			c-4.4,0-8.1,3.7-8.1,8.1s3.7,8.1,8.1,8.1s8.1-3.7,8.1-8.1S28.4,17.1,24,17.1z"/>
	</g>
	<g>
		<path class="st2" d="M37.8,16.4c-1.6,0-3,1.4-3,3c0,1.6,1.4,3,3,3c1.6,0,3-1.4,3-3C40.9,17.8,39.5,16.4,37.8,16.4z"/>
	</g>
</g>
</svg>
