<?xml version="1.0" encoding="utf-8"?>
<!-- Generator: Adobe Illustrator 26.5.0, SVG Export Plug-In . SVG Version: 6.00 Build 0)  -->
<svg version="1.1" id="Ebene_1" xmlns="http://www.w3.org/2000/svg" xmlns:xlink="http://www.w3.org/1999/xlink" x="0px" y="0px"
	 viewBox="0 0 48 48" style="enable-background:new 0 0 48 48;" xml:space="preserve">
<style type="text/css">
	.st0{display:none;}
	.st1{display:inline;fill:#D42200;}
	.st2{fill:#FFFFFF;}
</style>
<g id="Ebene_2_00000152957690527586842830000015233054127744461966_" class="st0">
	<rect y="0" class="st1" width="47.9" height="48.1"/>
</g>
<g>
	<path class="st2" d="M1.8,18.8C2,17,2.7,15.3,4,14c1.1-1.2,2.5-2,4.1-2.4c0.3-0.1,0.6-0.1,0.9-0.2c0.2,0,0.2,0,0.2-0.2
		c0-0.8,0-1.5,0-2.3c0-0.4,0-0.8,0-1.2c0-0.2,0-0.2-0.2-0.3C7.9,7.1,7.3,6.4,7,5.2C6.7,3.7,7.7,2.2,9.2,1.8c1.7-0.4,3.4,0.7,3.6,2.5
		C13,5.9,12,7.1,10.9,7.5c-0.3,0.1-0.3,0.1-0.3,0.4c0,1.1,0,2.2,0,3.3c0,0,0,0.1,0,0.1c0,0.2,0,0.2,0.2,0.2c0.5,0.1,0.9,0.1,1.4,0.3
		c1,0.3,2,0.8,2.8,1.5c0.1,0,0.1,0.1,0.2,0.1c0.1,0,0.1-0.1,0.2-0.1c1.4-1.2,2.8-2.4,4.1-3.5c0.1-0.1,0.1-0.2,0.1-0.3
		c0.1-2.1,1-3.9,2.5-5.3c1.2-1.2,2.7-2,4.4-2.2c4.4-0.7,8.3,2.3,9.2,6.4c0,0,0,0,0,0.1c0,0.3,0.2,0.4,0.4,0.6
		c1.7,0.8,3.4,1.6,5.1,2.4c0.2,0.1,0.3,0.1,0.4,0c1.8-1.3,4.3-0.3,4.6,1.9c0.3,1.6-0.8,3.1-2.4,3.4c-1.8,0.3-3.3-1-3.5-2.6
		c0-0.4,0-0.8,0.1-1.1c0-0.1,0-0.2,0.1-0.3c-0.4-0.2-0.8-0.4-1.2-0.6c-0.4-0.2-0.8-0.4-1.2-0.6c-0.4-0.2-0.8-0.4-1.2-0.6
		c-0.4-0.2-0.8-0.4-1.2-0.6c-0.1,0.7-0.2,1.4-0.4,2.1c-0.2,0.7-0.5,1.3-0.9,1.9c-0.4,0.6-0.9,1.1-1.4,1.6c0,0.1,0.1,0.1,0.1,0.2
		c1.2,1.6,2.4,3.1,3.5,4.7c0.1,0.2,0.2,0.2,0.4,0.2c2.5,0,4.6,0.9,6.2,2.8c1.1,1.2,1.7,2.6,1.9,4.2c0.5,3.4-1.3,6.8-4.3,8.4
		c-0.9,0.5-1.8,0.7-2.8,0.9c-3,0.4-6-1-7.7-3.5c-0.1-0.2-0.2-0.4-0.4-0.6c-0.1,0-0.1,0.1-0.2,0.1c-0.9,0.7-1.8,1.4-2.7,2
		c-0.1,0.1-0.1,0.1-0.1,0.3c0.3,0.8,0.4,1.7,0.4,2.5c0,0.2,0.1,0.3,0.2,0.3c1.7,0.8,3.4,1.6,5.1,2.5c0.2,0.1,0.3,0.1,0.4,0
		c1.7-1.2,4.1-0.4,4.6,1.6c0.4,1.8-0.8,3.3-2.3,3.6c-0.1,0-0.9,0-1.1,0c-1.5-0.3-2.6-1.7-2.3-3.4c0-0.2,0.1-0.4,0.1-0.5
		c-1.6-0.8-3.2-1.6-4.9-2.3c0,0.1-0.1,0.2-0.1,0.3c-0.9,3.3-3.7,5.7-7,6c-0.2,0-1.4,0.1-1.5,0c-0.4-0.1-0.8-0.1-1.2-0.2
		c-3.4-0.8-5.8-3.6-6.3-6.8c0-0.1,0-0.3-0.1-0.4c-1.3,0-2.6,0-3.9,0c0,0.1-0.1,0.2-0.1,0.3C7,40.5,5.6,41.2,4.3,41
		C3,40.9,2,39.9,1.8,38.6c0-0.1-0.1-0.2-0.1-0.2c0-0.1,0-0.3,0-0.4c0-0.1,0.1-0.2,0.1-0.2c0.2-1.3,1.3-2.4,2.7-2.5
		c1.3-0.1,2.6,0.7,3,2c0,0.1,0.1,0.2,0.1,0.2c1.3,0,2.6,0,3.9,0c0.3-2.4,1.3-4.4,3.3-5.8c2-1.4,4.2-1.9,6.5-1.4
		c2.4,0.5,4.2,1.9,5.4,4c0.1-0.1,0.1-0.1,0.2-0.1c0.7-0.5,1.3-1,2-1.5c0.2-0.2,0.4-0.3,0.6-0.5c0.2-0.1,0.2-0.1,0.1-0.3
		c0,0,0-0.1,0-0.1c-0.4-1.3-0.5-2.5-0.2-3.8c0.6-3.1,2.8-5.5,5.8-6.4c0.1,0,0.1,0,0.2-0.1c-0.1-0.2-3.2-4.3-3.3-4.5
		c-0.1,0-0.1,0.1-0.2,0.1C30,18,28.1,18.3,26,17.8c-3.1-0.7-5.5-3.1-6.2-6.2c0-0.1,0-0.2-0.1-0.3c-1.2,1-2.3,2-3.5,3
		c0.1,0.1,0.1,0.1,0.1,0.2c1,1.3,1.6,2.8,1.7,4.4c0,0.1,0.1,0.2,0.2,0.3c1.3,1,2.6,2,3.8,3c0.1,0,0.1,0.1,0.2,0.1
		c0.1-0.1,0.1-0.1,0.2-0.1c0.6-0.4,1.3-0.5,2-0.5c1.7,0.2,2.8,1.7,2.6,3.4c-0.3,1.7-2,2.9-3.7,2.4c-1.6-0.5-2.5-2.2-2-3.8
		c0.1-0.2,0.1-0.2-0.1-0.3c-1-0.8-2-1.6-3-2.3C18.1,21.1,18,21,18,21c0,0.1,0,0.2-0.1,0.2c-0.1,0.6-0.3,1.1-0.5,1.6
		c-1.4,3.3-4.9,5.3-8.6,4.8c-1.1-0.2-2.2-0.5-3.2-1.1c-2.3-1.5-3.6-3.5-3.9-6.3C1.8,20.1,1.7,19.1,1.8,18.8z M24,43.1
		c1.6-1.2,2.8-3.9,2.1-6.7c-0.8-3-3.5-5.1-6.8-5c-3.1,0.1-5.7,2.4-6.3,5.4c-0.3,1.5-0.1,3,0.6,4.4c0.4,0.8,1.2,1.7,1.5,1.9
		c0-0.2,0-0.3,0-0.5c0-0.6,0.2-1.1,0.6-1.5c0.5-0.5,1-0.7,1.7-0.7c1.4,0,2.9,0,4.3,0c0.1,0,0.2,0,0.2,0c0.9,0.1,1.5,0.6,1.9,1.4
		C24,42,24,42.3,24,42.6C24,42.8,24,42.9,24,43.1z M14.4,24.5c1.4-1.1,2.7-3.6,2.1-6.4c-0.7-3-3.3-5.2-6.5-5.3
		c-3.1-0.1-5.8,2.1-6.6,5c-0.7,2.7,0.4,5.4,2,6.6c0,0,0,0,0-0.1c0-0.2,0-0.3,0-0.5c0-1.2,1-2.2,2.2-2.2c1.5,0,3,0,4.5,0
		c1,0,1.9,0.8,2.1,1.7c0,0.2,0,0.5,0,0.7C14.3,24.3,14.4,24.4,14.4,24.5z M32.9,34.2c0-0.2,0-0.3,0-0.5c0-0.3,0.1-0.7,0.2-0.9
		c0.4-0.8,1.1-1.3,2-1.3c0.8,0,1.6,0,2.4,0c0.7,0,1.4,0,2.1,0c1,0,1.9,0.8,2.1,1.7c0,0.2,0,0.5,0.1,0.7c0,0.1,0,0.2,0,0.3
		c1.4-1.1,2.7-3.5,2.1-6.2c-0.6-2.9-3.1-5.3-6.4-5.4c-3-0.1-5.7,1.8-6.6,4.8C30.1,30.1,31.3,32.8,32.9,34.2z M32.2,14.8
		C32.2,14.8,32.2,14.8,32.2,14.8c0.1,0,0.2-0.1,0.3-0.2c1.7-1.8,2.3-3.9,1.8-6.3c-0.8-3.4-4.2-5.8-7.9-5c-3.8,0.8-6.1,4.7-5,8.4
		c0.3,1.2,0.9,2.1,1.8,3c0,0,0.1,0.1,0.2,0.1c0-0.1,0-0.3,0-0.5c0-0.3,0-0.6,0.2-0.8c0.4-0.9,1.1-1.4,2-1.4c1.5,0,3,0,4.4,0
		c0.1,0,0.1,0,0.2,0c1.2,0.2,2.1,1.2,2,2.3C32.2,14.6,32.2,14.7,32.2,14.8z M9.9,23.2c-0.7,0-1.3,0-2,0c-0.1,0-0.2,0-0.3,0
		c-0.4,0.1-0.6,0.4-0.7,0.8c0,0.4,0,0.9,0,1.3c0,0.1,0.1,0.2,0.2,0.3c0.8,0.4,1.7,0.6,2.6,0.6c0.4,0,0.9,0,1.3-0.1
		c0.6-0.1,1.2-0.3,1.7-0.5c0.1-0.1,0.2-0.1,0.2-0.3c0-0.4,0-0.9,0-1.3c0-0.4-0.3-0.7-0.6-0.8c-0.1,0-0.2,0-0.3,0
		C11.3,23.2,10.6,23.2,9.9,23.2z M37.4,32.9c-0.2,0-0.4,0-0.6,0c-0.5,0-1,0-1.5,0c-0.5,0-0.9,0.4-0.9,0.9c0,0.4,0,0.7,0,1.1
		c0,0.4-0.1,0.3,0.3,0.5c1,0.4,2,0.6,3.1,0.5c0.8-0.1,1.6-0.3,2.4-0.6c0.1-0.1,0.2-0.1,0.2-0.3c0-0.4,0-0.9,0-1.3
		c0-0.3-0.2-0.7-0.6-0.8c-0.1,0-0.2,0-0.4,0C38.7,32.9,38.1,32.9,37.4,32.9z M27.8,13.6C27.8,13.6,27.8,13.6,27.8,13.6
		c-0.7,0-1.5,0-2.2,0c-0.5,0-0.8,0.3-0.8,0.8c0,0.4,0,0.9,0,1.3c0,0.1,0.1,0.2,0.2,0.2c0.1,0,0.1,0,0.2,0.1c1.2,0.5,2.4,0.7,3.6,0.5
		c0.6-0.1,1.2-0.3,1.8-0.5c0.2-0.1,0.3-0.2,0.3-0.4c0-0.4,0-0.7,0-1.1c0-0.1,0-0.1,0-0.2c0-0.3-0.2-0.6-0.6-0.7c-0.1,0-0.2,0-0.3,0
		C29.1,13.6,28.4,13.6,27.8,13.6z M19.6,41.8C19.6,41.8,19.6,41.8,19.6,41.8c-0.2,0-0.5,0-0.7,0c-0.5,0-1,0-1.5,0
		c-0.4,0-0.8,0.4-0.8,0.8c0,0.4,0,0.9,0,1.3c0,0.1,0,0.2,0.2,0.3c0.7,0.3,1.5,0.5,2.3,0.6c0.6,0,1.2,0,1.7-0.1
		c0.6-0.1,1.1-0.3,1.7-0.5c0.1,0,0.2-0.1,0.2-0.2c0-0.5,0-0.9,0-1.4c0-0.2-0.1-0.4-0.3-0.6c-0.2-0.1-0.4-0.2-0.6-0.2
		C21,41.8,20.3,41.8,19.6,41.8z M24,26.3c0.8,0,1.5-0.7,1.5-1.5c0-0.8-0.7-1.5-1.5-1.5c-0.8,0-1.5,0.7-1.5,1.5
		C22.5,25.6,23.2,26.3,24,26.3z M9.9,3.2c-0.7,0-1.5,0.5-1.5,1.5c0,0.8,0.7,1.5,1.5,1.5c0.8,0,1.5-0.7,1.5-1.5
		C11.4,3.8,10.6,3.2,9.9,3.2z M41.8,13.6c0,0.8,0.7,1.5,1.5,1.5c0.8,0,1.5-0.7,1.5-1.5c0-0.8-0.6-1.5-1.5-1.5
		C42.5,12.1,41.8,12.8,41.8,13.6z M36.7,43.3c0-0.8-0.7-1.5-1.5-1.5c-0.8,0-1.5,0.7-1.5,1.5c0,0.7,0.5,1.5,1.5,1.5
		C36.2,44.8,36.7,44,36.7,43.3z M6.2,38.1c0-0.7-0.6-1.5-1.5-1.5c-0.8,0-1.5,0.7-1.5,1.5c0,0.9,0.8,1.5,1.5,1.5
		C5.6,39.6,6.2,38.9,6.2,38.1z"/>
	<path class="st2" d="M19.6,33c1.6,0,2.9,1.3,2.9,3c0,1.4-1.1,2.9-2.9,2.9c-1.7,0-3-1.3-3-3C16.6,34.1,18.1,32.9,19.6,33z
		 M18.1,35.9c0,0.8,0.7,1.5,1.5,1.5c0.8,0,1.5-0.7,1.5-1.5c0-0.8-0.6-1.5-1.5-1.5C18.5,34.4,18,35.3,18.1,35.9z"/>
	<path class="st2" d="M7,17.3c0-1.5,1.2-2.9,3-2.9c1.8,0,2.9,1.5,2.9,3c0,1.6-1.3,2.9-3,2.9C8.3,20.3,7,18.9,7,17.3z M9.9,15.8
		c-0.8,0-1.5,0.7-1.5,1.5c0,0.8,0.7,1.5,1.5,1.5c0.8,0,1.5-0.7,1.5-1.5C11.4,16.5,10.8,15.8,9.9,15.8z"/>
	<path class="st2" d="M34.5,27c0-1.6,1.3-2.9,2.9-3c1.4,0,3,1.1,3,2.9c0,1.7-1.4,3-2.9,3C35.7,29.9,34.4,28.5,34.5,27z M37.4,25.5
		c-0.8,0-1.5,0.7-1.5,1.5c0,0.8,0.7,1.5,1.5,1.5c0.8,0,1.5-0.7,1.5-1.5C38.9,26.2,38.2,25.5,37.4,25.5z"/>
	<path class="st2" d="M27.7,4.7c1.6,0,3,1.3,2.9,2.9c0,1.8-1.5,2.9-2.9,2.9c-1.5,0-2.9-1.2-2.9-2.9C24.8,6,26.1,4.7,27.7,4.7z
		 M29.2,7.7c0-0.8-0.7-1.5-1.5-1.5c-0.8,0-1.5,0.7-1.5,1.5c0,0.8,0.7,1.5,1.5,1.5C28.6,9.2,29.3,8.4,29.2,7.7z"/>
</g>
</svg>
