<?xml version="1.0" encoding="utf-8"?>
<!-- Generator: Adobe Illustrator 26.5.0, SVG Export Plug-In . SVG Version: 6.00 Build 0)  -->
<svg version="1.1" id="Ebene_1" xmlns="http://www.w3.org/2000/svg" xmlns:xlink="http://www.w3.org/1999/xlink" x="0px" y="0px"
	 viewBox="0 0 48 48" style="enable-background:new 0 0 48 48;" xml:space="preserve">
<style type="text/css">
	.st0{display:none;}
	.st1{display:inline;fill:#CC2121;}
	.st2{fill-rule:evenodd;clip-rule:evenodd;fill:#FFFFFF;}
	.st3{fill:#FFFFFF;}
</style>
<g id="Ebene_2_00000021809690070183372960000018155590586451076533_" class="st0">
	<rect y="0" class="st1" width="48" height="48"/>
</g>
<g>
	<path class="st2" d="M34.8,4h-21c-4.7,0-8.5,3.8-8.5,8.5v21.2c0,4.7,3.8,8.5,8.5,8.5h21c4.7,0,8.5-3.8,8.5-8.5V12.6
		C43.4,7.9,39.5,4,34.8,4L34.8,4z M39.8,31.8L39.8,31.8c0,3.8-3.1,6.9-6.9,6.9H15.8c-3.8,0-6.9-3.1-6.9-6.9V14.5
		c0-3.8,3.1-6.9,6.9-6.9h17.1c3.8,0,6.9,3.1,6.9,6.9V31.8z"/>
	<path class="st3" d="M24.3,13.7c-5.2,0-9.4,4.3-9.4,9.5c0,5.2,4.2,9.4,9.4,9.4c5.2,0,9.5-4.2,9.5-9.4C33.8,18,29.5,13.7,24.3,13.7
		L24.3,13.7z M24.3,29.4L24.3,29.4c-3.4,0-6.3-2.8-6.3-6.3s2.8-6.3,6.3-6.3c3.4,0,6.3,2.8,6.3,6.3S27.8,29.4,24.3,29.4L24.3,29.4z"
		/>
	<path class="st2" d="M34,14.6c1.1,0,1.9-0.9,1.9-1.9c0-1.1-0.9-1.9-1.9-1.9c-1.1,0-1.9,0.9-1.9,1.9C32.1,13.8,33,14.6,34,14.6
		L34,14.6z"/>
</g>
</svg>
