<?xml version="1.0" encoding="utf-8"?>
<!-- Generator: Adobe Illustrator 26.5.0, SVG Export Plug-In . SVG Version: 6.00 Build 0)  -->
<svg version="1.1" id="Ebene_1" xmlns="http://www.w3.org/2000/svg" xmlns:xlink="http://www.w3.org/1999/xlink" x="0px" y="0px"
	 viewBox="0 0 48 48" style="enable-background:new 0 0 48 48;" xml:space="preserve">
<style type="text/css">
	.st0{display:none;}
	.st1{display:inline;fill:#CC2121;}
	.st2{fill:none;stroke:#FFFFFF;stroke-width:2.5;}
	.st3{fill-rule:evenodd;clip-rule:evenodd;fill:#FFFFFF;}
	.st4{fill:#FFFFFF;}
</style>
<g id="Ebene_2_00000006709767809314110020000003299338189781902726_" class="st0">
	<rect y="0" class="st1" width="48" height="48"/>
</g>
<g>
	<g>
		<circle class="st2" cx="24" cy="24" r="19.2"/>
	</g>
</g>
<g>
	<path class="st3" d="M30.4,12.7H17.8c-2.8,0-5.1,2.3-5.1,5.1v12.8c0,2.8,2.3,5.2,5.1,5.2h12.7c2.8,0,5.2-2.3,5.2-5.2V17.8
		C35.6,15,33.3,12.7,30.4,12.7L30.4,12.7z M33.5,29.4L33.5,29.4c0,2.3-1.9,4.2-4.2,4.2H18.9c-2.3,0-4.2-1.9-4.2-4.2V19
		c0-2.3,1.9-4.2,4.2-4.2h10.3c2.3,0,4.2,1.9,4.2,4.2V29.4z"/>
	<path class="st4" d="M24.1,18.5c-3.1,0-5.7,2.6-5.7,5.7c0,3.1,2.6,5.7,5.7,5.7c3.1,0,5.7-2.6,5.7-5.7
		C29.8,21.1,27.2,18.5,24.1,18.5L24.1,18.5z M24.1,28L24.1,28c-2.1,0-3.8-1.7-3.8-3.8s1.7-3.8,3.8-3.8c2.1,0,3.8,1.7,3.8,3.8
		S26.2,28,24.1,28L24.1,28z"/>
	<path class="st3" d="M30,19.1c0.6,0,1.2-0.5,1.2-1.2c0-0.6-0.5-1.2-1.2-1.2c-0.6,0-1.2,0.5-1.2,1.2C28.8,18.5,29.3,19.1,30,19.1
		L30,19.1z"/>
</g>
</svg>
