<?xml version="1.0" encoding="utf-8"?>
<!-- Generator: Adobe Illustrator 26.5.0, SVG Export Plug-In . SVG Version: 6.00 Build 0)  -->
<svg version="1.1" id="Ebene_1" xmlns="http://www.w3.org/2000/svg" xmlns:xlink="http://www.w3.org/1999/xlink" x="0px" y="0px"
	 viewBox="0 0 48 48" style="enable-background:new 0 0 48 48;" xml:space="preserve">
<style type="text/css">
	.st0{display:none;}
	.st1{display:inline;fill:#CC2121;}
	.st2{fill:#FFFFFF;}
</style>
<g id="Ebene_2_00000006709767809314110020000003299338189781902726_" class="st0">
	<rect y="0" class="st1" width="48" height="48"/>
</g>
<path class="st2" d="M17.1,36.2l21.5-21.5c0.7-0.7,1.1-1.7,1.1-2.6c0-1-0.4-1.9-1.1-2.6c-0.7-0.7-1.7-1.1-2.6-1.1
	c-1,0-1.9,0.4-2.6,1.1L11.8,30.9l-2.7,7.9L17.1,36.2L17.1,36.2z M7.9,41.3c-0.5,0.2-1.1-0.1-1.2-0.6c-0.1-0.2-0.1-0.5,0-0.7l3.4-9.9
	l0,0c0.1-0.2,0.1-0.3,0.2-0.4L31.9,8.1c1.1-1.1,2.5-1.6,4-1.6c1.4,0,2.9,0.5,4,1.6c1.1,1.1,1.6,2.5,1.6,4c0,1.4-0.5,2.9-1.6,4
	L18.3,37.7h0c-0.1,0.1-0.3,0.2-0.4,0.3L7.9,41.3L7.9,41.3z"/>
<path class="st2" d="M36.9,17.7c0.4,0.4,0.4,1,0,1.4c-0.4,0.4-1,0.4-1.4,0L29,12.5c-0.4-0.4-0.4-1,0-1.4c0.4-0.4,1-0.4,1.4,0
	L36.9,17.7z"/>
<path class="st2" d="M18.3,36.4c0.4,0.4,0.4,1,0,1.4c-0.4,0.4-1,0.4-1.4,0l-6.6-6.6c-0.4-0.4-0.4-1,0-1.4c0.4-0.4,1-0.4,1.4,0
	L18.3,36.4z"/>
</svg>
