<?xml version="1.0" encoding="utf-8"?>
<!-- Generator: Adobe Illustrator 26.5.0, SVG Export Plug-In . SVG Version: 6.00 Build 0)  -->
<svg version="1.1" id="Ebene_1" xmlns="http://www.w3.org/2000/svg" xmlns:xlink="http://www.w3.org/1999/xlink" x="0px" y="0px"
	 viewBox="0 0 48 48" style="enable-background:new 0 0 48 48;" xml:space="preserve">
<style type="text/css">
	.st0{fill:#FFFFFF;}
</style>
<g id="grid_system">
</g>
<g id="_icons">
	<path class="st0" d="M38.1,35.8l-1.6-1.6c-0.6-0.6-1.6-0.6-2.2,0s-0.6,1.6,0,2.2l1.6,1.6c0.4,0.4,0.8,0.5,1.2,0.5
		c0.4,0,0.8-0.2,1.2-0.5C38.8,37.4,38.8,36.5,38.1,35.8z"/>
	<path class="st0" d="M27.2,40.2c0,1,0.6,1.6,1.6,1.6c1,0,1.6-0.6,1.6-1.6V37c0-1-0.6-1.6-1.6-1.6S27.2,36,27.2,37V40.2z"/>
	<path class="st0" d="M40.2,27.2H37c-1,0-1.6,0.6-1.6,1.6c0,1,0.6,1.6,1.6,1.6h3.2c1,0,1.6-0.6,1.6-1.6S41.2,27.2,40.2,27.2z"/>
	<path class="st0" d="M38.1,18.1c0-2.2-0.8-4.2-2.4-5.8s-3.6-2.4-5.9-2.4s-4.2,0.8-5.9,2.4l-3.6,3.6c-0.6,0.6-0.6,1.6,0,2.2
		s1.6,0.6,2.2,0l3.6-3.6c2-2,5.2-2,7.1,0c1,1,1.4,2.2,1.4,3.6s-0.5,2.6-1.4,3.6l-3.6,3.6c-0.6,0.6-0.6,1.6,0,2.2
		c0.4,0.4,0.8,0.4,1.2,0.4s0.8-0.2,1.2-0.4l3.6-3.6C37.3,22.4,38.1,20.4,38.1,18.1z"/>
	<path class="st0" d="M9.9,29.9c0,2.2,0.8,4.2,2.4,5.9s3.6,2.4,5.8,2.4s4.2-0.8,5.9-2.4l3.6-3.6c0.6-0.6,0.6-1.6,0-2.2
		s-1.6-0.6-2.2,0l-3.6,3.6c-2,2-5.2,2-7.1,0c-1-1-1.4-2.2-1.4-3.6c0-1.3,0.4-2.6,1.4-3.6l3.6-3.6c0.6-0.6,0.6-1.6,0-2.2
		s-1.6-0.6-2.2,0L12.4,24C10.7,25.6,9.9,27.6,9.9,29.9z"/>
	<path class="st0" d="M13.8,11.5l-1.6-1.6c-0.6-0.6-1.6-0.6-2.2,0c-0.6,0.6-0.6,1.6,0,2.2l1.6,1.6c0.4,0.4,0.6,0.4,1.2,0.4
		c0.4,0,0.8-0.2,1.2-0.4C14.5,13.1,14.5,12.2,13.8,11.5z"/>
	<path class="st0" d="M20.8,11V7.8c0-1-0.6-1.6-1.6-1.6s-1.6,0.6-1.6,1.6V11c0,1,0.6,1.6,1.6,1.6C20.1,12.7,20.8,12,20.8,11z"/>
	<path class="st0" d="M11,20.8c1,0,1.6-0.6,1.6-1.6S12,17.5,11,17.5H7.8c-1,0-1.6,0.6-1.6,1.6c0,1,0.6,1.6,1.6,1.6H11z"/>
</g>
</svg>
