<?xml version="1.0" encoding="utf-8"?>
<!-- Generator: Adobe Illustrator 26.5.0, SVG Export Plug-In . SVG Version: 6.00 Build 0)  -->
<svg version="1.1" id="Ebene_1" xmlns="http://www.w3.org/2000/svg" xmlns:xlink="http://www.w3.org/1999/xlink" x="0px" y="0px"
	 viewBox="0 0 48 48" style="enable-background:new 0 0 48 48;" xml:space="preserve">
<style type="text/css">
	.st0{fill:#171717;}
</style>
<g id="grid_system">
</g>
<g id="_icons">
	<path class="st0" d="M30.5,8.3C28,8.3,25.8,9.2,24,11l-4,4c-0.7,0.7-0.7,1.8,0,2.5c0.7,0.7,1.8,0.7,2.5,0l4-4
		c2.2-2.2,5.8-2.2,7.9,0c1.1,1.1,1.6,2.5,1.6,4s-0.5,2.9-1.6,4l-4,4c-0.7,0.7-0.7,1.8,0,2.5c0.4,0.4,0.9,0.5,1.3,0.5
		s0.9-0.2,1.3-0.5l4-4c1.8-1.8,2.7-4,2.7-6.5S38.8,12.8,37,11C35.2,9.2,33,8.3,30.5,8.3z"/>
	<path class="st0" d="M17.5,22.7c0.7-0.7,0.7-1.8,0-2.5s-1.8-0.7-2.5,0L11,24c-1.8,1.8-2.7,4-2.7,6.5S9.2,35.2,11,37
		c1.8,1.8,4,2.7,6.5,2.7s4.7-0.9,6.5-2.7l4-4c0.7-0.7,0.7-1.8,0-2.5s-1.8-0.7-2.5,0l-4,4c-2.2,2.2-5.8,2.2-7.9,0
		c-1.1-1.1-1.6-2.5-1.6-4s0.5-2.9,1.6-4L17.5,22.7z"/>
	<path class="st0" d="M18.8,29.2c0.4,0.4,0.9,0.5,1.3,0.5c0.4,0,0.9-0.2,1.3-0.5l7.7-7.7c0.7-0.7,0.7-1.8,0-2.5
		c-0.7-0.7-1.8-0.7-2.5,0l-7.7,7.7C18.1,27.2,18.1,28.5,18.8,29.2z"/>
</g>
</svg>
