<?xml version="1.0" encoding="utf-8"?>
<!-- Generator: Adobe Illustrator 26.5.0, SVG Export Plug-In . SVG Version: 6.00 Build 0)  -->
<svg version="1.1" id="Ebene_1" xmlns="http://www.w3.org/2000/svg" xmlns:xlink="http://www.w3.org/1999/xlink" x="0px" y="0px"
	 viewBox="0 0 48 48" style="enable-background:new 0 0 48 48;" xml:space="preserve">
<style type="text/css">
	.st0{fill:#FFFFFF;}
</style>
<g id="grid_system">
</g>
<g id="_icons">
	<path class="st0" d="M29.9,9.9c-2.2,0-4.2,0.8-5.9,2.4l-3.6,3.6c-0.6,0.6-0.6,1.6,0,2.2s1.6,0.6,2.2,0l3.6-3.6c2-2,5.2-2,7.1,0
		c1,1,1.4,2.2,1.4,3.6s-0.5,2.6-1.4,3.6l-3.6,3.6c-0.6,0.6-0.6,1.6,0,2.2c0.4,0.4,0.8,0.4,1.2,0.4s0.8-0.2,1.2-0.4l3.6-3.6
		c1.6-1.6,2.4-3.6,2.4-5.9s-0.8-4.2-2.4-5.8S32.1,9.9,29.9,9.9z"/>
	<path class="st0" d="M18.1,22.8c0.6-0.6,0.6-1.6,0-2.2c-0.6-0.6-1.6-0.6-2.2,0L12.3,24c-1.6,1.6-2.4,3.6-2.4,5.9s0.8,4.2,2.4,5.9
		s3.6,2.4,5.8,2.4s4.2-0.8,5.9-2.4l3.6-3.6c0.6-0.6,0.6-1.6,0-2.2s-1.6-0.6-2.2,0l-3.6,3.6c-2,2-5.2,2-7.1,0c-1-1-1.4-2.2-1.4-3.6
		s0.4-2.6,1.4-3.6L18.1,22.8z"/>
	<path class="st0" d="M19.3,28.7c0.4,0.4,0.8,0.5,1.2,0.5c0.4,0,0.8-0.2,1.2-0.5l6.9-6.9c0.6-0.6,0.6-1.6,0-2.2s-1.6-0.6-2.2,0
		l-6.9,6.9C18.7,26.9,18.7,28,19.3,28.7z"/>
</g>
</svg>
