<?xml version="1.0" encoding="utf-8"?>
<!-- Generator: Adobe Illustrator 26.5.0, SVG Export Plug-In . SVG Version: 6.00 Build 0)  -->
<svg version="1.1" xmlns="http://www.w3.org/2000/svg" xmlns:xlink="http://www.w3.org/1999/xlink" x="0px" y="0px"
	 viewBox="0 0 48 48" style="enable-background:new 0 0 48 48;" xml:space="preserve">
<style type="text/css">
	.st0{display:none;}
	.st1{display:inline;fill:#CC2121;}
	.st2{fill:#FFFFFF;}
</style>
<g id="Ebene_2" class="st0">
	<rect class="st1" width="48" height="48"/>
</g>
<g id="Layer_1">
	<path class="st2" d="M47.1,16.1C46.3,8.3,40.7,2.7,33.7,2.7c-3.4,0-7,2-9.8,5.6c-2.8-3.5-6.2-5.6-9.6-5.6c-7,0-12.6,5.6-13.4,13.4
		c-0.1,0.6-0.3,2.4,0.4,5.2c1,4.1,3.2,7.8,6.5,10.8l16.1,14.6L40.2,32c3.3-3,5.5-6.7,6.5-10.8C47.3,18.4,47.1,16.6,47.1,16.1z
		 M38,29.6L23.9,42.1L10,29.6c-2.8-2.5-4.6-5.6-5.4-9.1c-0.6-2.4-0.4-3.8-0.3-3.9l0-0.1C4.8,10.4,9,6,14.3,6c3.4,0,6.5,3.2,8.3,6.3
		l1.3,2.1l1.3-2.1c1.7-2.9,5-6.3,8.5-6.3c5.3,0,9.5,4.4,10.1,10.5l0,0.1c0,0.1,0.2,1.5-0.3,3.9C42.6,23.9,40.7,27.1,38,29.6z"/>
</g>
</svg>
