<?xml version="1.0" encoding="utf-8"?>
<!-- Generator: Adobe Illustrator 26.5.0, SVG Export Plug-In . SVG Version: 6.00 Build 0)  -->
<svg version="1.1" id="Ebene_1" xmlns="http://www.w3.org/2000/svg" xmlns:xlink="http://www.w3.org/1999/xlink" x="0px" y="0px"
	 viewBox="0 0 48 48" style="enable-background:new 0 0 48 48;" xml:space="preserve">
<style type="text/css">
	.st0{display:none;}
	.st1{display:inline;fill:#CC2121;}
	
		.st2{clip-path:url(#SVGID_00000127029571137994757310000012071943942576418970_);fill:url(#SVGID_00000120519893741274959400000018195900339615264415_);}
	.st3{clip-path:url(#SVGID_00000020358154013955571090000017362113058363356551_);fill:#FFFFFF;}
</style>
<g id="Ebene_2_00000006709767809314110020000003299338189781902726_" class="st0">
	<rect y="0" class="st1" width="48" height="48"/>
</g>
<g>
	<defs>
		<path id="SVGID_1_" d="M24.7,4.4c-11,0-19.9,8.9-19.9,19.9s8.9,19.9,19.9,19.9c11,0,19.9-8.9,19.9-19.9S35.7,4.4,24.7,4.4z"/>
	</defs>
	<clipPath id="SVGID_00000032609146250662369360000011709898184925554616_">
		<use xlink:href="#SVGID_1_"  style="overflow:visible;"/>
	</clipPath>
	
		<linearGradient id="SVGID_00000045577242891570089910000004656016628337034678_" gradientUnits="userSpaceOnUse" x1="-11.8075" y1="44.0905" x2="47.4286" y2="12.1187">
		<stop  offset="0" style="stop-color:#610AD1"/>
		<stop  offset="0.3267" style="stop-color:#610AD1"/>
		<stop  offset="0.7161" style="stop-color:#F92B02"/>
		<stop  offset="0.9566" style="stop-color:#FB7A43"/>
		<stop  offset="1" style="stop-color:#FB7A43"/>
	</linearGradient>
	
		<rect x="4.8" y="4.4" style="clip-path:url(#SVGID_00000032609146250662369360000011709898184925554616_);fill:url(#SVGID_00000045577242891570089910000004656016628337034678_);" width="39.9" height="39.9"/>
</g>
<g>
	<defs>
		<rect id="SVGID_00000092428783628503386840000017372294275247997082_" x="4.8" y="3.7" width="39.9" height="41.4"/>
	</defs>
	<clipPath id="SVGID_00000144328874586625185270000010149649751064438463_">
		<use xlink:href="#SVGID_00000092428783628503386840000017372294275247997082_"  style="overflow:visible;"/>
	</clipPath>
	<path style="clip-path:url(#SVGID_00000144328874586625185270000010149649751064438463_);fill:#FFFFFF;" d="M30.8,27.9
		C30.9,27.8,30.9,27.8,30.8,27.9C30.8,28,30.8,28,30.8,27.9 M30,28.1c0-0.1,0.1-0.2,0.2-0.2c0.1,0,0.2,0,0.3,0.1
		c0,0.1-0.1,0.2-0.2,0.2C30.2,28.1,30.1,28.1,30,28.1 M28.7,28.3C28.8,28.4,28.8,28.4,28.7,28.3C28.7,28.1,28.7,28.1,28.7,28.3
		 M26.2,37.6c-0.1,0-0.1,0.1-0.1,0.1C26.2,37.7,26.2,37.6,26.2,37.6 M22.5,14c0.3,0.3,0.7,0.6,1.1,0.7c0.4,0.1,0.8,0.3,1.1,0.7
		c0,0.1,0,0.2,0,0.3c-0.1,0.1,0,0.2,0,0.4c-0.1,0.1-0.3,0.2-0.4,0.5c-0.1,0.5-0.3,1-0.5,1.5c-0.2,0.4-0.3,0.9-0.5,1.5
		c-0.2,0.4-0.4,0.9-0.6,1.4c-0.3,0.5-0.4,1-0.4,1.4c0.3-0.2,0.5-0.4,0.7-0.6s0.5-0.4,0.8-0.6c1.9-1.6,3.8-3.3,5.6-4.9
		c1.8-1.6,3.5-3.4,4.9-5.4c0.1-0.3,0.3-0.7,0.5-1c0.3-0.3,0.4-0.7,0.3-1c-2,0.4-4.2,1.1-6.5,2.1C26.4,11.9,24.3,13,22.5,14
		 M25.8,37.9c-0.1,0-0.1,0.1-0.1,0.1C25.7,38,25.8,38,25.8,37.9 M24.3,38.8C24.3,38.9,24.4,38.9,24.3,38.8c0.1,0,0.1-0.1,0.1-0.1
		c0,0,0.1,0,0.1-0.1l-0.2,0L24.3,38.8z M23.9,39.2c0.2,0,0.3-0.1,0.2-0.3C24,38.9,23.9,39,23.9,39.2 M23.6,39.4l0.1,0
		c0.1-0.1,0.1-0.2-0.1-0.2C23.5,39.2,23.5,39.2,23.6,39.4C23.6,39.3,23.6,39.3,23.6,39.4 M23,39.6c0.1,0.1,0.2,0.1,0.2,0
		c0-0.1,0.1-0.1,0.2-0.1l0-0.2C23.3,39.4,23.2,39.5,23,39.6 M22.9,39.9C22.9,39.9,22.9,39.8,22.9,39.9c0-0.2,0-0.3-0.1-0.2
		C22.8,39.8,22.8,39.9,22.9,39.9 M22,40.3c0.1,0,0.3-0.1,0.4-0.1c0.1-0.1,0.2-0.2,0.2-0.3C22.2,40,22,40.1,22,40.3 M21.9,40.3
		c-0.1,0-0.1,0.1-0.1,0.1C21.9,40.4,21.9,40.4,21.9,40.3 M20.6,40.2c-0.1,0-0.1,0.1-0.1,0.1C20.6,40.2,20.6,40.2,20.6,40.2
		 M20.9,41.3c0,0.1-0.1,0.2-0.3,0.2C20.6,41.4,20.7,41.3,20.9,41.3 M20.4,41.4C20.4,41.5,20.4,41.5,20.4,41.4
		c0.1,0.1,0.1,0.1,0.1,0.2C20.4,41.7,20.3,41.6,20.4,41.4L20.4,41.4z M19.8,40.7c0,0.1,0.1,0.1,0.1,0C20,40.6,20,40.6,19.8,40.7
		c0-0.2,0-0.2-0.1-0.1C19.6,40.8,19.6,40.8,19.8,40.7 M19.9,41.6c0,0,0.1,0,0.1,0c0,0,0.1,0,0.1,0c-0.1,0.1-0.2,0.2-0.4,0.2
		c0-0.1,0-0.1,0.1-0.1C19.9,41.7,19.9,41.7,19.9,41.6 M19.6,40.7c-0.1,0-0.1,0.1-0.1,0.1C19.5,40.8,19.6,40.7,19.6,40.7 M19.3,42.1
		c0-0.1,0-0.2,0.1-0.1C19.4,42.1,19.4,42.1,19.3,42.1 M19.1,42.2c0,0,0-0.1,0.1-0.1C19.3,42.2,19.2,42.2,19.1,42.2 M18.6,42.4
		c0-0.1,0-0.1,0.2-0.1c0.1,0,0.2,0.1,0.1,0.2L18.6,42.4C18.7,42.4,18.7,42.4,18.6,42.4 M18.6,41.7c-0.1,0-0.1,0.1-0.1,0.1
		C18.5,41.8,18.6,41.8,18.6,41.7 M15.3,27.1L15.3,27.1C15.3,27.2,15.3,27.2,15.3,27.1C15.2,27.2,15.3,27.2,15.3,27.1 M18.2,41.7
		l0.1,0l0-0.1l-0.1,0L18.2,41.7z M18.2,41C18.1,41,18,41,18,41.1C18.1,41.1,18.2,41,18.2,41 M18,42c-0.1,0-0.1,0.1-0.1,0.1
		C18,42.1,18,42.1,18,42 M17.6,42.3l0.1,0l0-0.1l-0.1,0L17.6,42.3z M17.5,41.9l0,0.1c0.1,0,0.2,0,0.2-0.1
		C17.7,41.8,17.7,41.7,17.5,41.9C17.6,41.8,17.6,41.9,17.5,41.9 M17.2,41.9c0.1,0,0.2-0.1,0.2-0.2C17.3,41.7,17.2,41.8,17.2,41.9
		 M17.2,42.1c0,0.1,0,0.1,0.1,0.1c0.1,0,0.1-0.1,0.1-0.2L17.2,42.1z M15.4,36.9c0-0.1,0-0.2,0.1-0.3c0.1-0.1,0.1-0.2-0.1-0.1
		c0.1,0.1,0.1,0.2,0,0.2C15.3,36.7,15.3,36.8,15.4,36.9 M16.6,43.2c0,0,0-0.1,0.1-0.1C16.7,43.2,16.7,43.2,16.6,43.2 M15.1,37.2
		C15.2,37.3,15.2,37.3,15.1,37.2C15.2,37,15.2,37,15.1,37.2 M15.1,37.5l0.1,0l0-0.1l-0.1,0L15.1,37.5z M16,42.8l0.1,0l0-0.1l-0.1,0
		L16,42.8z M16,42.4C16,42.6,16,42.6,16,42.4C16.1,42.3,16.1,42.3,16,42.4 M13.8,33.2c0.1,0.1,0.1,0.1,0.1-0.1
		C13.9,33,13.9,33,13.8,33.2 M15.9,43.4l0.1,0l0,0.1l-0.1,0L15.9,43.4z M14.7,37C14.6,37,14.6,37.1,14.7,37L14.7,37
		C14.7,37,14.7,37,14.7,37 M13.8,32.4c0,0.1-0.1,0.2-0.2,0.1l0-0.1l0.1-0.1C13.7,32.3,13.8,32.3,13.8,32.4 M15.5,42.7
		c0.1,0.1,0.2,0.1,0.1-0.1C15.6,42.5,15.5,42.5,15.5,42.7 M13.7,34c0-0.1,0-0.2,0.1-0.2s0.1-0.1,0.1-0.2c-0.1,0-0.2,0-0.2,0.1
		C13.6,33.9,13.6,34,13.7,34 M15.3,43c-0.1,0-0.1,0.1-0.1,0.2c0.1-0.1,0.3-0.2,0.4-0.2c0.2,0,0.3-0.1,0.3-0.3
		c-0.2,0.1-0.4,0.2-0.4,0.1c-0.1-0.1-0.2-0.1-0.3-0.2c-0.1,0.1-0.1,0.2,0,0.2C15.3,42.9,15.3,42.9,15.3,43 M15.1,43.6
		c0-0.1,0-0.1,0.1-0.1c0.1,0,0.2,0,0.2,0C15.4,43.7,15.3,43.7,15.1,43.6 M14.8,43.2c0.1,0,0.2-0.1,0.2-0.3
		C14.8,42.9,14.8,43,14.8,43.2 M13.1,35.1C13.1,34.9,13.1,34.9,13.1,35.1C13.2,35.2,13.2,35.2,13.1,35.1 M13.6,38
		C13.7,38.1,13.7,38.1,13.6,38C13.7,37.8,13.6,37.8,13.6,38 M14.7,43.7l0.1,0l0-0.1l-0.1,0L14.7,43.7z M14.6,43.3
		C14.7,43.4,14.7,43.4,14.6,43.3C14.6,43.1,14.6,43.1,14.6,43.3 M14.6,44c0,0,0-0.1,0.1-0.1C14.7,44,14.7,44,14.6,44 M13.2,38l0,0.1
		c0.1,0,0.2,0,0.2-0.1C13.4,37.8,13.4,37.8,13.2,38C13.3,37.9,13.3,37.9,13.2,38 M14.6,43.4c-0.1-0.1-0.2-0.1-0.3,0
		c-0.1,0.1,0,0.2,0.1,0.2C14.5,43.6,14.6,43.5,14.6,43.4 M13.1,38c-0.1,0.1-0.2,0.1-0.1,0C13,37.9,13.1,37.9,13.1,38 M13.9,43.3
		c0.3,0,0.4-0.1,0.5-0.1c0.1-0.1,0.2-0.2,0.2-0.3c-0.1,0.1-0.2,0.1-0.4,0.2C14.1,43.1,14,43.2,13.9,43.3 M13.9,42.8
		c-0.1,0-0.2,0.1-0.2,0.1C13.8,42.9,13.9,42.9,13.9,42.8 M14.3,44c-0.2,0.2-0.4,0.3-0.4,0.2C14,43.9,14.1,43.8,14.3,44 M13.7,44.2
		C13.8,44,13.8,44,13.7,44.2C13.6,44.3,13.6,44.3,13.7,44.2 M13,42.5C12.9,42.7,12.9,42.7,13,42.5C13.1,42.4,13.1,42.4,13,42.5
		 M13.1,42.9C13,42.9,13,43,13,43C13.1,43,13.1,42.9,13.1,42.9 M13.1,43.7C13.1,43.8,13.2,43.8,13.1,43.7
		C13.1,43.5,13.1,43.5,13.1,43.7 M13,43.5c0.2,0,0.3-0.1,0.3-0.1c-0.1-0.1-0.1-0.1-0.2-0.1C13,43.3,13,43.4,13,43.5 M13.4,44.3
		c-0.1,0.1-0.2,0.1-0.2,0.1C13.1,44.3,13.2,44.3,13.4,44.3 M13.1,44.4c0,0.1-0.1,0.2-0.2,0.2c-0.1,0.1-0.2,0.1-0.3,0
		C12.6,44.5,12.8,44.4,13.1,44.4 M12.3,44.2c0,0.1,0,0.1-0.1,0.1c-0.1,0-0.1,0-0.1,0.1C12,44.4,12,44.3,12,44.2
		C12.1,44.1,12.2,44.1,12.3,44.2 M12,44.8c0,0,0-0.1,0.1-0.1C12.1,44.8,12.1,44.8,12,44.8 M11.4,43.6c-0.2-0.1-0.2-0.1-0.2,0.1
		c0,0.2,0,0.2,0.2,0.1C11.5,43.7,11.5,43.6,11.4,43.6 M11.2,43.2c-0.2,0.1-0.2,0.2,0,0.2C11.3,43.3,11.3,43.2,11.2,43.2 M11.4,45
		c0-0.1,0-0.1,0.1-0.1c0.1,0,0.2,0,0.3,0C11.8,45,11.6,45.1,11.4,45 M10.9,43.9c0.1,0.1,0.2,0.1,0.1,0
		C10.9,43.7,10.9,43.8,10.9,43.9 M10.6,43.7c0.2-0.1,0.3-0.3,0.3-0.4C10.7,43.3,10.6,43.5,10.6,43.7 M10.7,43.9
		C10.6,44,10.6,44,10.7,44C10.8,44,10.8,44,10.7,43.9 M10.4,43.9c0.1,0.1,0.2,0.1,0.1,0C10.4,43.8,10.4,43.8,10.4,43.9 M10.1,43.2
		l0.1,0l0-0.1l-0.1,0L10.1,43.2z M10.2,44.1l0.1,0l0-0.1l-0.1,0L10.2,44.1z M9.8,43.3C9.9,43.4,9.9,43.4,9.8,43.3
		C9.9,43.1,9.9,43.1,9.8,43.3 M10.1,44.7C10.1,44.6,10.1,44.6,10.1,44.7C10,44.8,10,44.8,10.1,44.7 M9,44.2C9,44,9.1,44,9,44.2
		C9.1,44.3,9.1,44.3,9,44.2 M9.1,43.7c0,0.1,0,0.2-0.2,0.2C8.9,43.8,8.9,43.7,9.1,43.7 M8.1,43.7l0.1,0l0,0.1l-0.1,0L8.1,43.7z
		 M20.9,41.3c-0.1-0.1-0.1-0.1,0-0.2c0.1,0,0.1-0.1,0.1-0.2c0.4,0,0.6-0.2,0.7-0.5c-0.3,0-0.6,0.1-0.8,0.4c-0.2,0.3-0.6,0.4-1,0.4
		c0,0.1,0.1,0.2,0.1,0.1c0-0.1,0.1-0.1,0.2-0.1c0,0.1,0,0.2-0.2,0.2c-0.1,0-0.2,0-0.3-0.1c0,0.2-0.1,0.3-0.3,0.2
		c-0.2,0-0.3,0.1-0.3,0.3c-0.4,0-0.9,0.1-1.4,0.5c-0.5,0.3-1,0.6-1.6,0.8c0.1-0.2,0.3-0.4,0.6-0.5c0.3-0.1,0.5-0.2,0.8-0.4
		c-0.1-0.1-0.2-0.1-0.3,0c-0.1,0.1-0.2,0,0-0.2c-0.2,0-0.3,0-0.2,0.1c0.1,0.1,0.1,0.2,0,0.2c-0.2,0-0.3,0-0.4-0.1
		c-0.1-0.1-0.2,0-0.3,0.1c0,0.1,0.1,0.1,0.2,0c0.1-0.1,0.2-0.1,0.2,0c-0.2,0.2-0.4,0.3-0.6,0.4c-0.2,0.1-0.3,0.3-0.4,0.4
		c0-0.1,0-0.2,0-0.2c0,0,0-0.1-0.1-0.1c-0.1,0.1-0.4,0.2-0.8,0.4l0.2,0.1c-0.2,0.2-0.4,0.2-0.7,0.1c-0.2-0.1-0.4,0-0.6,0.2
		c-0.4,0-0.5-0.1-0.4-0.3c0.1,0.1,0.2,0.1,0.3,0.2c0.1,0,0.2-0.1,0.2-0.3c0,0,0.1,0,0.1-0.1c0,0,0,0-0.1,0c-0.1-0.1-0.1-0.1-0.1-0.1
		c0,0,0,0.1,0.1,0.1l0,0.1c-0.2,0-0.3-0.1-0.3-0.1c0-0.1-0.1-0.1-0.3,0c0,0-0.1,0.1-0.2,0.3c0,0.1,0,0.2,0.1,0.1c0.1,0,0.1,0,0.2,0
		c-0.1,0.1-0.2,0.2-0.4,0.2c-0.2,0-0.3,0-0.5,0.1c0-0.2,0.1-0.3,0.2-0.2c0.1,0.1,0.2,0,0.2-0.1c-0.2-0.1-0.3-0.2-0.4-0.2
		c-0.1,0-0.1,0.1,0,0.1c0.2,0,0.2,0.1,0,0.1c-0.3,0-0.5,0-0.7,0.2c-0.2,0.2-0.3,0.3-0.5,0.5c0-0.1,0-0.2,0.2-0.3
		c0-0.1-0.1-0.1-0.2-0.1c-0.1,0-0.2,0.1-0.2,0.1c-0.1,0-0.1,0.1,0,0.2c0.1,0.1,0.1,0.2,0,0.2c-0.3,0-0.4,0-0.4,0.1
		c0,0.1-0.1,0.1-0.4,0.1c-0.1-0.2,0-0.3,0.2-0.2c0.2,0,0.3,0,0.2-0.2c0.1-0.1,0.1,0,0.2,0.1c0.1-0.2,0.1-0.4,0-0.5
		c-0.1,0-0.2,0.1-0.3,0.1c-0.1,0-0.1,0.1-0.2,0.1c-0.1,0.2,0,0.2,0.2,0.1c0.2-0.1,0.2-0.1,0.2,0.1c-0.3-0.1-0.6-0.1-0.9,0
		c-0.3,0.1-0.5,0.1-0.6-0.1c-0.2,0-0.3,0-0.2,0.1c0.1,0.1,0.1,0.1-0.1,0.2c-0.1,0-0.2,0-0.1,0c0.1,0,0.1-0.1,0-0.2
		c-0.1-0.1-0.3,0-0.4,0.1c-0.1,0.1-0.2,0.1-0.2,0c0.2-0.1,0.5-0.2,0.8-0.2c0.1-0.1,0.1-0.1,0-0.1c-0.1,0-0.1-0.1,0-0.2
		c0.1,0,0.2,0,0.3,0.1c0.1,0.1,0.2,0.1,0.3,0.1c0,0,0,0.1-0.1,0.1c0,0-0.1,0-0.1,0.1c0.1,0.1,0.1,0.1,0.2,0c0.1-0.1,0.1-0.1,0.2-0.1
		c0-0.1-0.1-0.2-0.2-0.2c-0.1,0-0.2-0.1-0.2-0.3c0.2-0.1,0.5-0.2,0.7-0.4c-0.1,0-0.3,0-0.5,0.1c-0.2,0.1-0.4,0.1-0.5,0.2
		c0-0.1,0-0.2,0-0.2c0.1,0,0.1,0,0.1-0.1c-0.2,0-0.4,0-0.6,0.2c-0.3,0.1-0.4,0.1-0.6-0.1c0-0.1,0.1-0.1,0.1-0.1c0,0.1,0.1,0.1,0.2,0
		l0,0.1c0.1,0,0.1,0,0.1-0.1c0,0,0,0-0.1,0c0-0.3,0.2-0.4,0.5-0.4c0.3,0,0.4-0.1,0.5-0.2c0.1,0,0.1-0.1,0.1-0.1c0-0.1,0-0.1-0.1-0.1
		c0,0.1-0.1,0.1,0,0.2c-0.1-0.1-0.3-0.1-0.5,0c-0.2,0.1-0.3,0.2-0.5,0.3c0-0.1,0-0.2,0-0.2c0,0,0.1,0,0.1-0.1c-0.2,0-0.3,0-0.4,0.2
		C8.1,43.2,8,43.2,8,43.1c0-0.3,0.2-0.4,0.6-0.4c0.3,0,0.5-0.1,0.6-0.4c0.1,0,0.2,0,0.2,0.1c0.1-0.1,0.1-0.2,0.1-0.3
		c2.6-1,5-2.1,7.2-3.3s4.5-2.6,6.7-4c1.6-1.1,3.1-2.3,4.7-3.4c1.6-1.1,2.9-2.4,4.1-3.8c-0.2-0.1-0.3-0.1-0.4,0s-0.2,0.2-0.2,0.3
		c-0.2-0.2-0.4-0.2-0.6-0.2c-0.2,0-0.4,0.1-0.6,0.2c-0.2,0.1-0.4,0.2-0.6,0.2c-0.2,0.1-0.4,0-0.5-0.1c-0.1,0.1-0.2,0.3-0.5,0.4
		c-0.2,0.2-0.5,0.2-0.6,0c-0.1,0.3-0.2,0.3-0.3,0c-0.1,0.1-0.2,0.2-0.3,0.3c-0.1,0.1-0.2,0.1-0.3,0.1c0.1,0,0.1-0.1,0.1-0.2
		c-0.1,0-0.1,0-0.1,0.2c-0.2,0-0.5,0.1-0.9,0c-0.4,0-0.7,0.2-0.8,0.6c-1.2,0-2.2,0.3-3.2,0.8c-1,0.5-2,0.9-3.1,1.3
		c-0.1,0-0.1,0-0.1,0.1c0.1,0,0.1,0.1,0.1,0.2c-0.4,0-0.7,0.1-0.9,0.3c-0.2,0.2-0.4,0.4-0.6,0.5c-0.5,1-0.9,2-1.3,3
		c-0.3,1-0.8,1.9-1.5,2.8c0-0.1,0.1-0.2,0.1-0.3C15,38,15,37.9,15,37.8c-0.1-0.1-0.2,0-0.2,0.2c0,0.2-0.1,0.3-0.1,0.5
		c-0.1-0.1-0.1-0.2,0-0.3c0.1-0.2,0.1-0.3,0.1-0.4l-0.2,0c-0.1,0.1-0.1,0.1,0,0.2c0.1,0.1,0.1,0.2,0,0.3c-0.1,0-0.1-0.1-0.1-0.1
		c0.1,0,0.1-0.1,0-0.2c-0.2,0.1-0.3,0.3-0.3,0.5c0,0.2-0.1,0.3-0.3,0.5c0-0.3,0.1-0.5,0.2-0.7c0.1-0.2,0.2-0.4,0.2-0.7
		c-0.2,0.1-0.4,0.4-0.4,0.7c0,0.3-0.2,0.5-0.4,0.7c0-0.1,0.1-0.2,0.1-0.3c0-0.1,0-0.2,0-0.3c-0.1,0-0.2,0.1-0.2,0.3
		c0,0.2-0.1,0.3-0.2,0.3c-0.1-0.2,0-0.4,0-0.5c0.1-0.1,0-0.3-0.1-0.5c0.2-0.2,0.2-0.4,0.3-0.6c-0.1,0.1-0.2,0.2-0.3,0.2
		c0,0.1-0.1,0.1-0.3,0.1c0.1-0.6,0.2-1.2,0.3-1.7c0.1-0.6,0.3-1.1,0.5-1.6c-0.1-0.1-0.2,0-0.2,0.1c0,0.2-0.1,0.3-0.3,0.3
		c0-0.4,0.1-0.7,0.3-1c0.2-0.3,0.2-0.6,0-0.9c0.1,0,0.2-0.1,0.3-0.2c0-0.1,0.1-0.2,0.2-0.2c0-0.2,0-0.3-0.1-0.3
		c-0.1-0.1-0.1-0.1,0.1-0.2c0,0.1,0.1,0.1,0.2,0.1C14,32,14,32,13.9,32l0-0.1c0-0.1,0.1-0.2,0.1-0.3c0.1-0.1,0.1-0.2,0-0.3
		c0,0,0.1,0,0.3,0.1c0.1-0.1,0.1-0.2,0.1-0.3c0-0.1-0.1-0.2-0.1-0.3l0.2,0c-0.1-0.6,0-1.2,0.3-1.8c0.3-0.5,0.5-1.1,0.6-1.7
		c0.1,0,0.2-0.1,0.2-0.3c-0.1-0.1-0.1-0.1-0.1,0.1c0,0.1,0,0.2-0.1,0.1c0.1-0.2,0.1-0.5,0.2-0.7c0.1-0.3,0.2-0.4,0.4-0.4
		c0-0.1-0.1-0.2-0.2-0.1c0.7-1.6,1.3-3.3,2-4.9c0.6-1.6,1.2-3.3,1.8-5c-0.6,0.4-1.2,0.8-1.9,1.4c-0.7,0.6-1.2,1.2-1.5,1.9l0.1,0.5
		c-0.3,0.5-0.7,0.8-1.3,1c-0.1-0.3-0.3-0.4-0.8-0.3c-0.1-0.3-0.4-0.4-0.8-0.4c-0.3-0.3-0.6-0.5-0.9-0.7c-0.3-0.1-0.6-0.4-0.8-0.7
		c0-0.3,0-0.6-0.2-0.8c0.4-0.9,0.9-1.8,1.6-2.4c0.7-0.7,1.5-1.3,2.4-1.9c0.5-0.4,1-0.8,1.4-1.1c0.4-0.3,0.9-0.7,1.6-1
		c0.1-0.2,0.3-0.3,0.6-0.4c0.3-0.1,0.4-0.2,0.5-0.4C21.3,9.7,23,8.8,24.8,8c1.7-0.8,3.5-1.5,5.2-2.1c0.1,0,0.2-0.1,0.2-0.2
		c0.7-0.1,1.6-0.3,2.6-0.6c1-0.3,1.9-0.4,2.7-0.2c0.4,0.1,0.7,0.3,1,0.5c0.3,0.2,0.7,0.4,1,0.6C38,6.5,38.5,7,39,7.3
		c0.6,0.3,0.9,0.8,1,1.5c0.2,0.9,0,1.8-0.6,2.7c-0.6,1-1.2,1.8-1.8,2.7c-0.3,0.4-0.6,0.8-1,1.2c-0.3,0.4-0.6,0.7-0.8,1.1l-0.3,0.1
		c-0.1,0.1-0.1,0.2-0.2,0.2c-0.1,0-0.1,0.1-0.1,0.3c-1.1,1.1-2.3,2.1-3.4,3.2c-1.2,1.1-2.4,2.1-3.6,3c0,0,0,0.1-0.1,0.3
		c-0.2,0-0.3,0-0.5,0.2c-0.1,0.2-0.2,0.3-0.4,0.4c-0.2,0.1-0.4,0.3-0.6,0.5c0.6-0.1,1.3-0.2,2-0.3c0.7-0.1,1.4-0.3,2-0.4
		c0.7-0.1,1.3-0.1,2-0.1c0.6,0,1.2,0.1,1.7,0.4c0,0,0,0.1,0.1,0.1c0,0,0,0,0.1,0.1c0.6,0.4,1.1,0.9,1.7,1.2c0.6,0.4,1,0.9,1.4,1.7
		c-0.2,0.8-0.5,1.5-1,2.2c-0.4,0.7-1,1.3-1.5,1.8c-0.6,0.6-1.2,1.1-1.9,1.6c-0.7,0.5-1.3,1.1-1.9,1.6c-0.1-0.1-0.2-0.1-0.3,0
		c0,0,0.1,0.1,0.1,0.1c0.1,0,0.1,0,0.1,0.1c-0.3-0.1-0.5,0.1-0.7,0.4c0,0-0.1,0-0.1,0c0,0-0.1,0-0.1,0c-1.5,1.1-3,2.1-4.5,3.1
		C24.3,39.4,22.6,40.4,20.9,41.3"/>
</g>
</svg>
