<?xml version="1.0" encoding="utf-8"?>
<!-- Generator: Adobe Illustrator 26.5.0, SVG Export Plug-In . SVG Version: 6.00 Build 0)  -->
<svg version="1.1" id="Ebene_1" xmlns="http://www.w3.org/2000/svg" xmlns:xlink="http://www.w3.org/1999/xlink" x="0px" y="0px"
	 viewBox="0 0 133.5 31.9" style="enable-background:new 0 0 133.5 31.9;" xml:space="preserve">
<style type="text/css">
	.st0{display:none;}
	.st1{display:inline;fill:#CC2121;}
	
		.st2{clip-path:url(#SVGID_00000048498191405044275620000017370406158172548740_);fill:url(#SVGID_00000086659207159383465040000011062823519465537945_);}
</style>
<g id="Ebene_2_00000006709767809314110020000003299338189781902726_" class="st0">
	<rect x="39.4" y="-10.5" class="st1" width="48" height="48"/>
</g>
<g>
	<defs>
		<path id="SVGID_1_" d="M128.2,17.3c0.2,0.3,0.3,0.3,0.4-0.1c0-0.2,0-0.3,0-0.3C128.5,16.9,128.4,17,128.2,17.3 M126.7,16.9
			c-0.3,0.2-0.3,0.5,0,0.6c0-0.3,0.1-0.4,0.4-0.4c0.2,0.1,0.4,0,0.6-0.4c-0.1-0.1-0.3-0.1-0.4-0.1C127.1,16.7,126.9,16.8,126.7,16.9
			 M111.3,19.5c0.3,0,0.5,0,0.5,0.1c0,0.1,0.2,0.1,0.5,0.1c-0.2,0.3-0.4,0.5-0.7,0.5C111.2,20.2,111.1,20,111.3,19.5 M109.1,19.5
			c0.3-0.2,0.7-0.2,1-0.2c0.3,0,0.5,0.2,0.5,0.7c-0.3-0.2-0.7-0.2-1.1,0c-0.1,0-0.2,0.1-0.3,0.1C109,20,109,19.9,109.1,19.5
			 M111.5,17.3c0,0.2-0.1,0.2-0.2,0.2H111C111,17.4,111.2,17.3,111.5,17.3 M115,17.8c0-0.3,0.3-0.5,1-0.5c0,0.3-0.1,0.5-0.4,0.6
			c-0.1,0-0.2,0-0.2,0C115.2,17.9,115.1,17.9,115,17.8 M116.4,17.5c0.3,0,0.5-0.1,0.6-0.2c0.1-0.2,0.3-0.1,0.6,0.2
			c0,0.3-0.2,0.5-0.7,0.6c-0.1,0-0.1,0-0.2,0C116.4,18.2,116.3,18,116.4,17.5 M113.2,17.5c0.2-0.3,0.6-0.5,1.5-0.5
			c0,0.3-0.2,0.5-0.6,0.6c-0.1,0-0.3,0-0.4,0C113.5,17.7,113.4,17.6,113.2,17.5 M45.8,9c-11.2,0.3-22.3,0.7-33.4,1
			c-0.5,0.3-1.1,0.5-1.7,0.6c-0.7,0.1-1.2,0.2-1.7,0.4c-0.7,1.1-1.3,2.4-2.1,3.9c-0.7,1.5-1.3,2.9-1.6,4.4C4.9,20.7,5,22,5.6,23.2
			c0.6,1.1,1.9,1.9,4,2.2c0.5,0.8,1.1,1.3,2,1.3c0.8,0.1,1.7,0.1,2.7,0.1h3.1c1.1,0,2,0.2,2.8,0.5c0.3,0,0.5-0.1,0.6-0.2
			c0.1-0.2,0.3-0.2,0.6-0.2c8.5-0.6,17.1-0.9,25.8-0.9c8.7,0.1,17.5-0.4,26.3-1.3l0.7,0.7c0.8-0.2,1.7-0.3,2.6-0.5
			c0.9-0.2,1.8-0.4,2.6-0.7c1.8,0.2,4.1,0.3,6.9,0.4c2.8,0.1,5.1-0.3,6.9-1.1c0.3,0.8,0.7,1,1.1,0.5c0.4-0.5,0.9-0.4,1.6,0.2
			c0.3,0,0.4-0.2,0.4-0.5c-0.1-0.3,0.1-0.4,0.6-0.2c2.1-0.2,4.1-0.3,5.9-0.5c1.8-0.2,3.8-0.2,6.1,0c0.7-0.5,1.5-0.6,2.4-0.4
			c1,0.2,1.8,0,2.4-0.9c0.2,0.8,0.9,1,2.2,0.5c1.3-0.5,2.1-1,2.5-1.5c-1-0.2-2-0.2-3.2-0.1c-1.1,0.1-1.9-0.2-2.2-0.9
			c1.5-0.3,3.2-0.4,5.1-0.1c2,0.2,3.9,0,5.9-0.6c-1-0.5-1.9-0.7-2.8-0.6c-0.9,0.1-1.8-0.2-2.6-0.9c1.3-0.3,2.7-0.4,4-0.2
			c1.4,0.2,2.6-0.1,3.6-0.7c-0.5-0.2-1-0.2-1.6-0.1c-0.6,0.1-1,0-1.3-0.4c0.3-0.7,0.8-1.2,1.3-1.6c0.6-0.4,1.2-0.8,1.8-1.1
			c0.2,0,0.2,0.1,0.1,0.4c-0.1,0.2,0,0.4,0.4,0.4c0-0.5,0.3-0.7,1-0.5c0.7,0.2,1.1,0,1.2-0.5c-0.7-0.2-1.1-0.3-1.5-0.5
			c-0.3-0.2-0.8-0.2-1.5,0c0-0.3,0.2-0.5,0.7-0.5c0.5,0,0.7-0.3,0.7-1c-1.8,0.2-3.3-0.2-4.4-1c-7.5-1.5-14.9-2.1-22.3-2
			C93.7,8.4,86.5,8.3,79.5,8C68.2,8.3,57,8.6,45.8,9"/>
	</defs>
	<clipPath id="SVGID_00000026122635469222204840000001700909992138721212_">
		<use xlink:href="#SVGID_1_"  style="overflow:visible;"/>
	</clipPath>
	
		<linearGradient id="SVGID_00000178920952414537721140000003125333228647603633_" gradientUnits="userSpaceOnUse" x1="-230.7174" y1="436.9706" x2="-229.7174" y2="436.9706" gradientTransform="matrix(114.641 -37.2491 -37.2491 -114.641 42759.3359 41529.4688)">
		<stop  offset="0" style="stop-color:#610AD1"/>
		<stop  offset="1.395450e-02" style="stop-color:#610AD1"/>
		<stop  offset="0.7161" style="stop-color:#F92B02"/>
		<stop  offset="0.9566" style="stop-color:#FB7A43"/>
		<stop  offset="1" style="stop-color:#FB7A43"/>
	</linearGradient>
	
		<polygon style="clip-path:url(#SVGID_00000026122635469222204840000001700909992138721212_);fill:url(#SVGID_00000178920952414537721140000003125333228647603633_);" points="
		-0.8,9.8 117.3,-28.5 134.8,25.5 16.8,63.8 	"/>
</g>
</svg>
